<?xml version="1.0" encoding="UTF-8"?>
<svg id="SVGDoc" width="25" height="25" xmlns="http://www.w3.org/2000/svg" version="1.1" xmlns:xlink="http://www.w3.org/1999/xlink" xmlns:avocode="https://avocode.com/" viewBox="0 0 25 25"><defs></defs><desc>Generated with Avocode.</desc><g><g><title>Еще</title><path d="M4.12489,0.99928h3.75c1.72588,0 3.12504,1.39904 3.12504,3.12514v3.75005c0,1.72548 -1.39915,3.12452 -3.12504,3.12452h-3.75c-1.72588,0 -3.12492,-1.39904 -3.12492,-3.12452v-3.75005c0,-1.7261 1.39904,-3.12514 3.12492,-3.12514zM4.12489,13.99916h3.75c1.72588,0 3.12504,1.39904 3.12504,3.12514v3.75005c0,1.72548 -1.39915,3.12514 -3.12504,3.12514h-3.75c-1.72588,0 -3.12492,-1.39966 -3.12492,-3.12514v-3.75005c0,-1.7261 1.39904,-3.12514 3.12492,-3.12514zM17.12492,0.99928h3.75c1.72588,0 3.12504,1.39904 3.12504,3.12514v3.75005c0,1.72548 -1.39915,3.12452 -3.12504,3.12452h-3.75c-1.72588,0 -3.12492,-1.39904 -3.12492,-3.12452v-3.75005c0,-1.7261 1.39904,-3.12514 3.12492,-3.12514zM17.12492,13.99916h3.75c1.72588,0 3.12504,1.39904 3.12504,3.12514v3.75005c0,1.72548 -1.39915,3.12514 -3.12504,3.12514h-3.75c-1.72588,0 -3.12492,-1.39966 -3.12492,-3.12514v-3.75005c0,-1.7261 1.39904,-3.12514 3.12492,-3.12514z" fill-opacity="0" fill="#ffffff" stroke-dashoffset="0" stroke-dasharray="" stroke-linejoin="round" stroke-linecap="round" stroke-opacity="1" stroke="#9393c3" stroke-miterlimit="20" stroke-width="2"></path></g></g></svg>