<?xml version="1.0" encoding="UTF-8"?>
<svg id="SVGDoc" width="735" height="114" version="1.1" viewBox="0 0 735 114" xmlns="http://www.w3.org/2000/svg">
 <defs>
  <linearGradient id="LinearGradient1017" x1=".33198" x2="734.33" y1="57.362" y2="57" gradientUnits="userSpaceOnUse">
   <stop stop-color="#26267d" offset="0"/>
   <stop stop-color="#7d265a" offset="1"/>
  </linearGradient>
 </defs>
 <desc>Generated with Avocode.</desc>
 <g>
  <title>Облако Обещния</title>
  <g>
   <title>Фигура 9 копия</title>
   <path d="m734.75 10.696-7.7518 85.469c-0.23403 4.6386-4.8358 8.3656-10.244 8.3725l-650.59-1.9524c-3.9907 0.00497-7.8858-3.1562-8.7306-7.0947l-0.04116-16.618-19.122 26.658c-2.1714 1.9736-5.5418 1.8013-7.5278-0.38427l-11.173-12.296-19.239 21.511s14.536-45.39 17.516-53.221c2.7038-7.1036 2.9681-13.692 15.186 4.2088l24.247-32.21-0.02994-12.089c-1.1387-5.3089 1.6212-10.104 6.2073-10.658l659.91-10.306c6.5942-0.79776 11.71 3.9857 11.376 10.609z" fill="#006"/>
   <path d="m734.75 10.696-7.7518 85.469c-0.23403 4.6386-4.8358 8.3656-10.244 8.3725l-650.59-1.9524c-3.9907 0.00497-7.8858-3.1562-8.7306-7.0947l-0.04116-16.618-19.122 26.658c-2.1714 1.9736-5.5418 1.8013-7.5278-0.38427l-11.173-12.296-19.239 21.511s14.536-45.39 17.516-53.221c2.7038-7.1036 2.9681-13.692 15.186 4.2088l24.247-32.21-0.02994-12.089c-1.1387-5.3089 1.6212-10.104 6.2073-10.658l659.91-10.306c6.5942-0.79776 11.71 3.9857 11.376 10.609z" fill="url(#LinearGradient1017)"/>
  </g>
  <g>
   <title>Фигура 11</title>
   <path d="m713.01 58.989-0.27935-39.703-90.722 5.7274 86.541 0.4222z" fill="#fff"/>
  </g>
  <g>
   <title>Фигура 11 копия</title>
   <path d="m74.992 57.006 0.21183 29.772 68.789 0.20955-65.619-4.9402z" fill="#e8e8fb"/>
  </g>
 </g>
</svg>
